<svg width="11" height="11" viewBox="0 0 11 11" fill="none" xmlns="http://www.w3.org/2000/svg">
<g style="mix-blend-mode:luminosity">
<mask id="mask0_3215_8112" style="mask-type:luminance" maskUnits="userSpaceOnUse" x="0" y="0" width="11" height="11">
<path d="M11 0V11H0V0H11Z" fill="white"/>
</mask>
<g mask="url(#mask0_3215_8112)">
<path d="M11 5.5C11 8.5375 8.5375 11 5.5 11C2.4625 11 0 8.5375 0 5.5C0 2.4625 2.4625 0 5.5 0C8.5375 0 11 2.4625 11 5.5Z" fill="url(#paint0_linear_3215_8112)"/>
<path fill-rule="evenodd" clip-rule="evenodd" d="M5.50027 2.53003C3.86002 2.53003 2.53027 3.86003 2.53027 5.50003C2.53027 5.66103 2.54302 5.81903 2.56777 5.97303C2.58402 6.07828 2.64527 6.30628 2.76077 6.37728C2.90477 6.46578 3.06777 6.38978 3.20127 6.32728H3.20202L3.76602 6.06403C3.79832 6.04989 3.83333 6.04301 3.86858 6.04387C3.90383 6.04474 3.93846 6.05332 3.97002 6.06903C4.01177 6.09076 4.04629 6.12418 4.06938 6.1652C4.09246 6.20621 4.10311 6.25306 4.10002 6.30003C4.09377 6.36628 4.05827 6.45353 3.96827 6.49503L3.27077 6.82003C3.22913 6.83879 3.19187 6.86605 3.16139 6.90006C3.1309 6.93407 3.10787 6.97409 3.09377 7.01753C3.07829 7.06684 3.07489 7.11916 3.08385 7.17006C3.09281 7.22096 3.11388 7.26897 3.14527 7.31003C3.16427 7.33603 3.22102 7.39378 3.29527 7.41803C3.38852 7.44803 3.46852 7.43653 3.53102 7.40803C3.58102 7.38528 4.57252 6.92303 5.06202 6.69453C5.09403 6.68079 5.12869 6.67433 5.16349 6.67563C5.1983 6.67693 5.23238 6.68594 5.26327 6.70203C5.36827 6.75728 5.39877 6.86128 5.39327 6.92578C5.38827 6.99003 5.35252 7.08453 5.26502 7.12528L4.22677 7.60878C4.17637 7.63395 4.13355 7.67205 4.10267 7.71917C4.0718 7.7663 4.05398 7.82077 4.05102 7.87703C4.04277 8.06953 4.17602 8.16053 4.23152 8.18628C4.27552 8.20878 4.39102 8.24128 4.50202 8.19003C4.61302 8.13878 5.79127 7.58928 6.36677 7.32078C6.40077 7.30328 6.49352 7.28053 6.57252 7.32078C6.67602 7.37353 6.71052 7.46378 6.71052 7.53203C6.71052 7.60028 6.70752 7.65028 6.59952 7.74703C6.50502 7.83128 6.36677 7.91453 5.89477 8.11553C5.73327 8.18453 5.62302 8.23528 5.64127 8.32228C5.65477 8.38753 5.70227 8.41228 5.86027 8.40528C6.01852 8.39803 6.73002 8.34228 7.44277 7.74678C7.7656 7.46825 8.02451 7.12334 8.20184 6.73559C8.37916 6.34785 8.47073 5.9264 8.47027 5.50003C8.47027 5.16928 8.41627 4.85128 8.31652 4.55403C8.2475 4.58381 8.16952 4.58522 8.09947 4.55796C8.02941 4.53069 7.97291 4.47693 7.94219 4.40832C7.91146 4.33971 7.90899 4.26176 7.9353 4.19134C7.96161 4.12092 8.01459 4.06369 8.08277 4.03203C7.82347 3.57577 7.44786 3.19639 6.99421 2.93254C6.54055 2.6687 6.02507 2.52981 5.50027 2.53003ZM6.60027 4.40003C6.60027 4.47588 6.57014 4.54863 6.51651 4.60226C6.46287 4.6559 6.39013 4.68603 6.31427 4.68603C6.23842 4.68603 6.16568 4.6559 6.11204 4.60226C6.05841 4.54863 6.02827 4.47588 6.02827 4.40003C6.02827 4.32418 6.05841 4.25143 6.11204 4.1978C6.16568 4.14416 6.23842 4.11403 6.31427 4.11403C6.39013 4.11403 6.46287 4.14416 6.51651 4.1978C6.57014 4.25143 6.60027 4.32418 6.60027 4.40003Z" fill="white"/>
</g>
</g>
<defs>
<linearGradient id="paint0_linear_3215_8112" x1="5.5" y1="0" x2="5.5" y2="11" gradientUnits="userSpaceOnUse">
<stop stop-color="#6246F5"/>
<stop offset="0.493" stop-color="#5166EE"/>
<stop offset="1" stop-color="#56B9F9"/>
</linearGradient>
</defs>
</svg>
