<svg width="50" height="50" viewBox="0 0 50 50" fill="none" xmlns="http://www.w3.org/2000/svg">
<path d="M25 0.625C20.1791 0.625 15.4664 2.05457 11.458 4.73293C7.44954 7.41129 4.32533 11.2181 2.48045 15.6721C0.635561 20.126 0.152855 25.027 1.09337 29.7553C2.03388 34.4836 4.35538 38.8268 7.76428 42.2357C11.1732 45.6446 15.5164 47.9661 20.2447 48.9066C24.973 49.8472 29.874 49.3644 34.3279 47.5196C38.7819 45.6747 42.5887 42.5505 45.2671 38.542C47.9454 34.5336 49.375 29.8209 49.375 25C49.367 18.5378 46.7963 12.3426 42.2268 7.77318C37.6574 3.20372 31.4622 0.633063 25 0.625ZM34.375 26.875H26.875V34.375C26.875 34.8723 26.6775 35.3492 26.3258 35.7008C25.9742 36.0525 25.4973 36.25 25 36.25C24.5027 36.25 24.0258 36.0525 23.6742 35.7008C23.3226 35.3492 23.125 34.8723 23.125 34.375V26.875H15.625C15.1277 26.875 14.6508 26.6775 14.2992 26.3258C13.9476 25.9742 13.75 25.4973 13.75 25C13.75 24.5027 13.9476 24.0258 14.2992 23.6742C14.6508 23.3225 15.1277 23.125 15.625 23.125H23.125V15.625C23.125 15.1277 23.3226 14.6508 23.6742 14.2992C24.0258 13.9475 24.5027 13.75 25 13.75C25.4973 13.75 25.9742 13.9475 26.3258 14.2992C26.6775 14.6508 26.875 15.1277 26.875 15.625V23.125H34.375C34.8723 23.125 35.3492 23.3225 35.7008 23.6742C36.0525 24.0258 36.25 24.5027 36.25 25C36.25 25.4973 36.0525 25.9742 35.7008 26.3258C35.3492 26.6775 34.8723 26.875 34.375 26.875Z" fill="black"/>
<path d="M34.375 26.875H26.875V34.375C26.875 34.8723 26.6775 35.3492 26.3258 35.7008C25.9742 36.0525 25.4973 36.25 25 36.25C24.5027 36.25 24.0258 36.0525 23.6742 35.7008C23.3226 35.3492 23.125 34.8723 23.125 34.375V26.875H15.625C15.1277 26.875 14.6508 26.6775 14.2992 26.3258C13.9476 25.9742 13.75 25.4973 13.75 25C13.75 24.5027 13.9476 24.0258 14.2992 23.6742C14.6508 23.3225 15.1277 23.125 15.625 23.125H23.125V15.625C23.125 15.1277 23.3226 14.6508 23.6742 14.2992C24.0258 13.9475 24.5027 13.75 25 13.75C25.4973 13.75 25.9742 13.9475 26.3258 14.2992C26.6775 14.6508 26.875 15.1277 26.875 15.625V23.125H34.375C34.8723 23.125 35.3492 23.3225 35.7008 23.6742C36.0525 24.0258 36.25 24.5027 36.25 25C36.25 25.4973 36.0525 25.9742 35.7008 26.3258C35.3492 26.6775 34.8723 26.875 34.375 26.875Z" fill="white"/>
</svg>
